<svg xmlns="http://www.w3.org/2000/svg" viewBox="0 0 673.4 238.9" class="jss18"><g fill="#F69120"><path d="M115 158.7c-21.6 0-42.3-3.5-58.4-9.9-16.9-6.7-26.2-15.7-26.2-25.4 0-18.7 39.5-35 84.6-35 45.2 0 83.8 16 84.4 34.9.1 4.6-1.9 9.1-6 13.3-12.9 13.3-44.4 22.1-78.4 22.1zm0-62.4c-20 0-40.2 3.5-55.4 9.7-12.9 5.2-21.3 12.1-21.3 17.5 0 5.9 8.1 12.8 21.3 18.1 14.9 5.9 35.2 9.4 55.4 9.4 36.8 0 63.6-10.2 72.8-19.7 2.6-2.6 3.8-5.2 3.8-7.6-.4-11-31.1-27.4-76.6-27.4z"></path><path d="M115 160.9c-21.8 0-42.8-3.6-59.2-10.1-17.8-7-27.6-16.8-27.6-27.3 0-20.2 39.7-37.2 86.7-37.2 47.1 0 86 16.6 86.6 37 .2 5.2-2.1 10.2-6.6 14.9-13.2 13.6-45.3 22.7-79.9 22.7zm0-70.3c-43.1 0-82.4 15.7-82.4 32.8 0 8.7 8.8 17 24.8 23.3 15.8 6.3 36.3 9.8 57.5 9.8 33.5 0 64.4-8.6 76.8-21.5 3.7-3.8 5.5-7.7 5.4-11.7-.5-17.4-38.9-32.7-82.1-32.7zm0 62.5c-20.6 0-41.1-3.5-56.3-9.5-14.2-5.6-22.6-13.2-22.6-20.1 0-6.5 8.5-13.7 22.7-19.5 15.5-6.3 36-9.9 56.2-9.9 20.7 0 40.6 3.4 56 9.7 14 5.7 22.5 13 22.7 19.6.1 3-1.4 6.1-4.4 9.2-5.2 5.4-14.8 10.3-27 14-13.9 4.3-30.2 6.5-47.3 6.5zm0-54.6c-19.7 0-39.6 3.5-54.6 9.5-13.7 5.5-19.9 11.9-19.9 15.4 0 4 6.2 10.6 19.9 16 14.7 5.8 34.6 9.2 54.6 9.2 36.2 0 62.3-9.9 71.2-19.1 2.1-2.2 3.2-4.2 3.1-6-.2-8.8-28.7-25-74.3-25z"></path></g><g fill="#0C80C3"><path d="M149 199c-7.6 0-16.8-4.2-26.8-12.2-13-10.4-26.4-26.6-37.8-45.4-22.6-37.5-28.3-80.6-11.9-90.5 4-2.4 8.9-2.9 14.7-1.4 17.8 4.5 41.2 27.1 58.2 56.2 17 29 25.3 61.8 20.2 79.7-1.6 5.7-4.5 9.6-8.5 11.8-2.4 1.1-5.1 1.8-8.1 1.8zM81 56.4c-1.8 0-3.3.4-4.5 1.1-9.7 5.9-7.8 42.7 14.6 79.7 23.5 38.9 51.2 58.7 62.3 52.8 2.1-1.1 3.7-3.5 4.7-7 3.8-13.5-1.6-43.1-19.5-73.5C122.8 82.6 100.9 61 85.2 57c-1.5-.4-2.9-.6-4.2-.6z"></path><path d="M149 201.2c-8.1 0-17.9-4.4-28.2-12.7-13.1-10.6-26.7-26.9-38.3-46C58.9 103.4 53.7 59.7 71.3 49c4.5-2.7 10-3.3 16.3-1.7 18.3 4.7 42.3 27.6 59.6 57.2 17.3 29.5 25.7 62.9 20.5 81.4-1.8 6.3-5 10.7-9.6 13.1-2.7 1.4-5.8 2.2-9.1 2.2zM81 50.8c-2.8 0-5.3.6-7.4 1.9-15.1 9.2-9 51.7 12.7 87.5 11.3 18.6 24.5 34.6 37.3 44.8 9.5 7.7 18.3 11.7 25.5 11.7 2.6 0 5-.6 7.1-1.7 3.5-1.9 6-5.4 7.5-10.5 4.9-17.4-3.3-49.4-20-78-16.8-28.6-39.6-50.8-56.9-55.2-2.2-.3-4-.5-5.8-.5zm67.9 142.6c-15 0-40-22.5-59.6-54.9C79 121.4 72 102.8 69.6 86c-2.2-15.5 0-26.8 5.8-30.4 2.6-1.6 6.1-1.9 10.4-.8 16.2 4.1 38.7 26.1 54.7 53.6 8.4 14.3 14.6 29.4 18.1 43.7 3.1 12.9 3.7 24.1 1.6 31.5-1.2 4.1-3.1 6.9-5.7 8.3-1.7 1-3.6 1.5-5.6 1.5zM81 58.6c-1.4 0-2.5.3-3.4.8-3.4 2-5.8 10.9-3.7 26 2.3 16.2 9 34.2 19 50.7 21.9 36.2 45 52.8 55.9 52.8 1.4 0 2.5-.3 3.5-.8 1.6-.8 2.8-2.7 3.6-5.7 3.7-13-1.7-41.9-19.3-71.9-15.5-26.5-36.9-47.7-52-51.6-1.3-.1-2.5-.3-3.6-.3z"></path></g><g fill="#5FB146"><path d="M80.9 199c-3.1 0-5.9-.7-8.3-2.1-15.9-9.3-10.5-52.6 11.5-90.7 22-38.2 56.5-64.8 72.4-55.9 4.1 2.3 7 6.5 8.7 12.4 4.9 17.9-2.9 49.3-19.5 78.1-17 29.5-40.4 52.5-58.4 57.3-2.3.6-4.4.9-6.4.9zm-4.4-8.9c2.1 1.3 5.1 1.4 8.7.4 15.8-4.2 37.8-26.3 53.6-53.6 12.6-21.9 23.8-53.8 18.7-72.2-1-3.8-2.7-6.4-4.9-7.6-9.3-5.2-40 15.1-61.8 53-21.6 37.7-23.6 74.5-14.3 80z"></path><path d="M80.9 202.1c-3.6 0-6.9-.9-9.8-2.5-19.5-11.4-10.2-59.1 10.4-94.9 20.6-35.8 57.1-68 76.6-57 4.9 2.7 8.3 7.5 10.1 14.2 5.1 18.6-2.8 51-19.8 80.5-17.3 30.2-41.5 53.8-60.2 58.7-2.6.6-5.1 1-7.3 1zm68.4-150.5c-15.2 0-42.6 21.4-62.6 56.1-22.8 39.6-25.5 79-12.6 86.6 3.3 1.9 7.5 2.2 12.4.9 17.2-4.6 39.9-27 56.5-55.9 16.2-28.2 23.9-58.7 19.2-75.8-1.4-5.1-3.8-8.6-7.2-10.5-1.6-1-3.5-1.4-5.7-1.4zM80.9 194.2c-2.2 0-4.2-.5-5.9-1.5-11.9-7-8.7-46.1 13.2-84.2 21.9-38.2 54-60.8 65.9-54.1 3 1.7 5.1 4.9 6.4 9.5 5.3 19.2-6.1 52.1-19 74.5-16.1 28-38.9 50.7-55.4 55.1-1.9.5-3.6.7-5.2.7zM149 59.3c-9.1 0-35.1 16.7-55.5 52.3-22.3 38.9-21.7 72.2-15.4 75.9 1.4.8 3.6.8 6.4.1 15.1-4 36.4-25.5 51.7-52.2 12.3-21.3 23.3-52.3 18.4-69.8-.8-2.9-2-4.9-3.5-5.8-.5-.3-1.2-.5-2.1-.5z"></path></g><circle cx="114.9" cy="123.9" r="15.8"></circle><path fill="#F69120" d="M65.3 141.3l13.8 3.8s5.4 7.1 5.2 7.6c-.1.6-8.2 4.1-8.2 4.1l-13.9-3.7s1-4.8 1.2-5.5c.3-1.1 1.9-6.3 1.9-6.3zM84.8 146.3l15.9 1.8 9.6 12.3-16.3-.5s-6.3-5.3-6.2-6.1c.1-1.3-3-7.5-3-7.5z"></path><path fill="#0C80C3" d="M113.7 62.5l10.9 10.9s1.2 11.1.9 11.4-9.9-3-9.9-3l-10-10.1s-8.2-10.1-7.9-10.5c.6-.6 16 1.3 16 1.3z"></path><g><path d="M254.3 108.5l-4.9 28.1H223L237.2 56h38.1c11.6 0 19.8 1.4 24.8 4.1 5 2.8 7.4 7.2 7.4 13.2 0 1.6-.2 3.5-.6 5.6-.9 4.9-2.8 9-5.7 12.5-2.9 3.5-6.7 5.9-11.4 7.2 3.9 1.5 6.6 3.1 8.3 4.7 1.6 1.6 2.5 4.5 2.5 8.6 0 2.2-.3 4.9-.9 8.1-.2 1-.3 2-.4 2.8-.8 4.6-1.2 7.5-1.2 8.6 0 1.8.7 2.7 2 2.7l-.4 2.5h-26.8v-.8c-.1-.6-.1-1.1-.1-1.5 0-3 .4-6.9 1.2-11.9.5-2.6.8-4.7.8-6.3 0-2.8-.9-4.8-2.7-6-1.8-1.2-5-1.7-9.7-1.7h-8.1zm3.1-17.7h10.4c4.3 0 7.5-.6 9.8-1.8 2.3-1.2 3.6-3.1 4.1-5.8 0-.2 0-.5.1-.9s.1-.7.1-.8c0-2.2-.8-3.9-2.5-5s-4-1.7-6.9-1.7h-12.3l-2.8 16zM311.7 136.6L326 56h65.7l-3.4 18.8H349l-2 11.5h33.2l-3.2 18.8h-33.2l-2.2 12.6h40.9l-3.4 18.8h-67.4zM385.3 136.6L428.4 56h26.9l14.7 80.6h-26.3l-1.2-10.6h-26.3l-4.9 10.6h-26zm52-56.3L424 109.2h16.7l-3.4-28.9zM538.1 86.8V85.1c0-3.7-1-6.5-3.1-8.5s-5.1-3-9-3c-4.7 0-8.7 2-12 6-3.3 4-5.7 9.8-7 17.5-.5 3.2-.8 6-.8 8.4 0 4.2 1 7.5 2.9 9.9 1.9 2.4 5.3 3.6 10 3.6 4 0 7.4-1.2 10-3.7 2.6-2.5 4.6-5.8 5.9-10h25.4c-3 10.4-8.5 18.5-16.4 24.5-7.9 5.9-17.3 8.9-27.9 8.9-11.5 0-20.4-2.9-26.7-8.7-6.3-5.8-9.5-13.8-9.5-24 0-3.1.3-6.4.9-9.9 1.1-6.4 3.2-12.2 6.1-17.5 2.9-5.2 6.6-9.7 10.9-13.4 4.3-3.7 9.1-6.6 14.3-8.5 5.2-1.9 10.6-2.9 16.2-2.9 11.5 0 20.2 2.6 26.1 7.7 5.9 5.1 8.8 12.4 8.8 21.8 0 .3 0 .9-.1 1.7v1.8h-25zM575.9 56h73.9l-3.7 21.2h-23.7l-10.5 59.4h-26.4L596 77.2h-23.7l3.6-21.2z"></path><g><path d="M244.6 167.6c0-1.2-.4-2-1.3-2.6-.8-.5-1.8-.7-3.1-.7-2.6 0-4.1.7-4.3 2.2v.2l-.1.2c0 .9.5 1.5 1.6 2s2.8 1 5.1 1.6c2 .5 3.6 1 4.8 1.4 1.2.4 2.5 1 3.7 1.7 1.2.7 2.2 1.6 2.9 2.8.7 1.1 1.1 2.5 1.1 4.1 0 .6-.1 1.3-.2 2-.7 4.3-2.9 7.5-6.5 9.7-3.6 2.2-8.1 3.3-13.4 3.3-2.3 0-4.3-.3-6.1-.9-1.8-.6-3.4-1.4-4.6-2.4-1.3-1-2.2-2.2-2.9-3.5-.7-1.3-1-2.8-1-4.4 0-.5 0-.9.1-1.5h11.9c0 1.3.5 2.3 1.5 3 .9.6 2 .9 3.4.9 1.6 0 2.9-.2 3.9-.7 1-.5 1.6-1.2 1.7-2 0-.1 0-.1.1-.2v-.2c0-.9-.5-1.5-1.6-2s-2.7-1-5-1.6c-2-.5-3.6-.9-4.8-1.3-1.3-.4-2.5-1-3.7-1.7-1.2-.7-2.2-1.7-2.9-2.8-.7-1.2-1.1-2.6-1.1-4.3 0-.7.1-1.4.2-2.2.7-3.9 2.7-6.9 6.1-9 3.4-2.1 7.5-3.1 12.4-3.1 2.5 0 4.6.3 6.4.9 1.8.6 3.3 1.4 4.4 2.5 1.1 1.1 1.9 2.3 2.5 3.8.5 1.5.8 3.1.8 4.9h-12zM262.7 156.6h34.7l-1.7 9.9h-11.1l-4.9 27.9h-12.4l4.9-27.9H261l1.7-9.9zM328.5 156.9c2.1.8 3.9 2 5.3 3.4s2.4 3.1 3 5c.7 1.9 1 3.9 1 6.1 0 1.3-.1 2.6-.4 4-.6 3.1-1.6 5.9-3 8.5-1.4 2.5-3.2 4.6-5.3 6.4-2.1 1.7-4.4 3-7 3.9-2.6.9-5.3 1.3-8.1 1.3-5.2 0-9.3-1.3-12.3-4s-4.4-6.5-4.4-11.4c0-1.5.2-3.1.5-4.8.5-2.9 1.4-5.6 2.8-8 1.4-2.4 3.1-4.5 5.2-6.2 2.1-1.7 4.4-3.1 7-4 2.6-.9 5.3-1.4 8.2-1.4 2.8-.1 5.3.3 7.5 1.2zm-12.8 8.9c-1.1.6-2 1.4-2.7 2.4-.7 1-1.3 2.1-1.8 3.3-.5 1.2-.8 2.5-1.1 3.8-.2 1.3-.3 2.5-.3 3.6 0 2.2.4 3.9 1.3 5.3.9 1.3 2.4 2 4.5 2 2.6 0 4.6-1 6.1-2.9 1.5-2 2.6-4.6 3.2-7.9.2-1.1.3-2.1.3-3.1 0-2.2-.5-3.9-1.4-5.3-1-1.4-2.5-2-4.6-2-1.3-.1-2.5.2-3.5.8zM354 181.3l-2.3 13.2h-12.4l6.7-37.8h17.9c5.4 0 9.3.6 11.6 1.9 2.3 1.3 3.5 3.4 3.5 6.2 0 .8-.1 1.6-.3 2.6-.4 2.3-1.3 4.2-2.7 5.9-1.4 1.6-3.1 2.8-5.3 3.4 1.8.7 3.1 1.4 3.9 2.2.8.8 1.2 2.1 1.2 4 0 1.1-.1 2.3-.4 3.8-.1.5-.1.9-.2 1.3-.4 2.2-.6 3.5-.6 4 0 .8.3 1.3.9 1.3l-.2 1.2h-12.6v-.4c0-.3-.1-.5-.1-.7 0-1.4.2-3.3.6-5.6.2-1.2.4-2.2.4-2.9 0-1.3-.4-2.3-1.3-2.8-.8-.5-2.4-.8-4.6-.8H354zm1.5-8.3h4.9c2 0 3.5-.3 4.6-.8 1.1-.6 1.7-1.5 1.9-2.7 0-.1 0-.2.1-.4 0-.2.1-.3.1-.4 0-1.1-.4-1.8-1.2-2.4-.8-.5-1.9-.8-3.2-.8h-5.8l-1.4 7.5z"></path><g><path d="M430.8 194.4l6.7-37.8h29.4l-1.6 8.8h-17l-1.2 6.9h13.6l-1.5 8.8h-13.6l-2.4 13.3h-12.4zM479.9 181.3l-2.3 13.2h-12.4l6.7-37.8h17.9c5.4 0 9.3.6 11.6 1.9 2.3 1.3 3.5 3.4 3.5 6.2 0 .8-.1 1.6-.3 2.6-.4 2.3-1.3 4.2-2.7 5.9-1.3 1.6-3.1 2.8-5.3 3.4 1.8.7 3.1 1.4 3.9 2.2.8.8 1.2 2.1 1.2 4 0 1.1-.1 2.3-.4 3.8-.1.5-.1.9-.2 1.3-.4 2.2-.6 3.5-.6 4 0 .8.3 1.3.9 1.3l-.2 1.2h-12.6v-.4c0-.3-.1-.5-.1-.7 0-1.4.2-3.3.6-5.6.2-1.2.4-2.2.4-2.9 0-1.3-.4-2.3-1.3-2.8-.8-.5-2.4-.8-4.6-.8h-3.7zm1.5-8.3h4.9c2 0 3.5-.3 4.6-.8 1.1-.6 1.7-1.5 1.9-2.7 0-.1 0-.2.1-.4 0-.2.1-.3.1-.4 0-1.1-.4-1.8-1.2-2.4-.8-.5-1.9-.8-3.2-.8h-5.8l-1.4 7.5zM539 156.9c2.1.8 3.9 2 5.3 3.4s2.4 3.1 3 5c.7 1.9 1 3.9 1 6.1 0 1.3-.1 2.6-.4 4-.6 3.1-1.6 5.9-3 8.5-1.4 2.5-3.2 4.6-5.3 6.4-2.1 1.7-4.4 3-7 3.9-2.6.9-5.3 1.3-8.1 1.3-5.2 0-9.3-1.3-12.3-4s-4.4-6.5-4.4-11.4c0-1.5.2-3.1.5-4.8.5-2.9 1.4-5.6 2.8-8s3.1-4.5 5.2-6.2c2.1-1.7 4.4-3.1 7-4 2.6-.9 5.3-1.4 8.2-1.4 2.9-.1 5.4.3 7.5 1.2zm-12.8 8.9c-1.1.6-2 1.4-2.7 2.4-.7 1-1.3 2.1-1.8 3.3-.5 1.2-.8 2.5-1.1 3.8-.2 1.3-.3 2.5-.3 3.6 0 2.2.4 3.9 1.3 5.3s2.4 2 4.5 2c2.6 0 4.6-1 6.1-2.9 1.5-2 2.6-4.6 3.2-7.9.2-1.1.3-2.1.3-3.1 0-2.2-.5-3.9-1.4-5.3-1-1.4-2.5-2-4.6-2-1.2-.1-2.4.2-3.5.8zM578.4 177.3l1.1-8.6 2.1-12h11.9l-6.7 37.8h-11.6l-9.9-20.6-1 8.6-2.1 12h-11.9l6.7-37.8h11.6l9.8 20.6zM598.7 156.6h34.7l-1.7 9.9h-11.1l-4.9 27.9h-12.4l4.9-27.9h-11.1l1.6-9.9z"></path></g><g><path fill="#0C80C3" d="M382.5 193.7h35.1l1.8-8.6h-35.1l-1.8 8.6z"></path><path fill="#5FB146" d="M420.5 171h-33.1l-1.8 8.6h33.1l1.8-8.6z"></path><path fill="#F69120" d="M388.5 165.5h35.1l1.8-8.6h-35.1l-1.8 8.6z"></path></g></g></g></svg>